<?xml version="1.0" encoding="utf-8"?>
<!-- Generator: Adobe Illustrator 21.1.0, SVG Export Plug-In . SVG Version: 6.00 Build 0)  -->
<svg version="1.1" id="Layer_1" xmlns:sketch="http://www.bohemiancoding.com/sketch/ns"
	 xmlns="http://www.w3.org/2000/svg" xmlns:xlink="http://www.w3.org/1999/xlink" x="0px" y="0px"
	 viewBox="0 0 32 32" style="enable-background:new 0 0 32 32;" xml:space="preserve">
<style type="text/css">
	.st0{fill:#FFFFFF;}
</style>
<title></title>
<desc></desc>
<g>
	<g id="document-file-html">
		<path d="M19.5,25.5v2c0,1.1-0.9,2-2,2h-15c-1.1,0-2-0.9-2-2v-23c0-1.1,0.9-2,2-2h10v6c0,1.1,0.9,2,2,2h5v2h-13c-1.7,0-3,1.3-3,3v7
			c0,1.7,1.3,3,3,3H19.5L19.5,25.5L19.5,25.5z M13.5,2.5v6c0,0.6,0.5,1,1,1h5L13.5,2.5L13.5,2.5z M6.5,13.5c-1.1,0-2,0.9-2,2v7
			c0,1.1,0.9,2,2,2h23c1.1,0,2-0.9,2-2v-7c0-1.1-0.9-2-2-2H6.5L6.5,13.5z M29.5,21.5v1h-5v-7h1v6H29.5L29.5,21.5z M14.5,16.5v6h1v-6
			h2v-1h-5v1H14.5L14.5,16.5z M10.5,18.5v-3h1v7h-1v-3h-3v3h-1v-7h1v3H10.5L10.5,18.5z M21,18.5l-1.5-3H19h-0.5v7h1v-5l1,2H21h0.5
			l1-2v5h1v-7H23h-0.5L21,18.5L21,18.5z"/>
	</g>
	<g>
		<g>
			<rect x="5.2" y="14.3" width="25.3" height="9.5"/>
		</g>
		<g>
			<path class="st0" d="M8.6,16.6h2c0.4,0,0.7,0,0.9,0c0.2,0,0.4,0.1,0.5,0.2c0.2,0.1,0.3,0.2,0.4,0.4c0.1,0.2,0.2,0.4,0.2,0.6
				c0,0.2-0.1,0.4-0.2,0.6c-0.1,0.2-0.3,0.3-0.5,0.4c0.3,0.1,0.5,0.2,0.7,0.5c0.2,0.2,0.2,0.5,0.2,0.8c0,0.2-0.1,0.4-0.2,0.7
				c-0.1,0.2-0.3,0.4-0.4,0.5c-0.2,0.1-0.4,0.2-0.7,0.2c-0.2,0-0.6,0-1.2,0H8.6V16.6z M9.6,17.5v1.2h0.7c0.4,0,0.6,0,0.7,0
				c0.2,0,0.3-0.1,0.4-0.2c0.1-0.1,0.1-0.2,0.1-0.4c0-0.2,0-0.3-0.1-0.4c-0.1-0.1-0.2-0.2-0.4-0.2c-0.1,0-0.4,0-0.9,0H9.6z
				 M9.6,19.4v1.3h0.9c0.4,0,0.6,0,0.7,0c0.1,0,0.3-0.1,0.4-0.2c0.1-0.1,0.1-0.2,0.1-0.4c0-0.2,0-0.3-0.1-0.4
				c-0.1-0.1-0.2-0.2-0.3-0.2s-0.4-0.1-0.9-0.1H9.6z"/>
			<path class="st0" d="M13.5,19.1c0-0.5,0.1-0.9,0.2-1.3c0.1-0.3,0.3-0.5,0.5-0.7c0.2-0.2,0.4-0.4,0.6-0.4c0.3-0.1,0.7-0.2,1.1-0.2
				c0.7,0,1.3,0.2,1.8,0.7s0.7,1.1,0.7,1.9c0,0.8-0.2,1.4-0.7,1.9c-0.4,0.5-1,0.7-1.8,0.7c-0.7,0-1.3-0.2-1.8-0.7
				C13.7,20.6,13.5,19.9,13.5,19.1z M14.5,19.1c0,0.6,0.1,1,0.4,1.3c0.3,0.3,0.6,0.4,1,0.4c0.4,0,0.7-0.1,1-0.4s0.4-0.7,0.4-1.3
				c0-0.6-0.1-1-0.4-1.3c-0.3-0.3-0.6-0.4-1-0.4c-0.4,0-0.8,0.1-1,0.4C14.6,18.1,14.5,18.5,14.5,19.1z"/>
			<path class="st0" d="M19.1,16.6H21c0.4,0,0.7,0,1,0.1c0.3,0.1,0.5,0.2,0.8,0.5c0.2,0.2,0.4,0.5,0.5,0.8c0.1,0.3,0.2,0.7,0.2,1.2
				c0,0.4-0.1,0.8-0.2,1.1c-0.1,0.4-0.3,0.7-0.5,0.9c-0.2,0.2-0.4,0.3-0.7,0.4c-0.2,0.1-0.5,0.1-0.9,0.1h-1.9V16.6z M20.1,17.5v3.3
				h0.8c0.3,0,0.5,0,0.6,0c0.2,0,0.3-0.1,0.4-0.2c0.1-0.1,0.2-0.3,0.3-0.5c0.1-0.2,0.1-0.5,0.1-0.9s0-0.7-0.1-0.9
				c-0.1-0.2-0.2-0.4-0.3-0.5c-0.1-0.1-0.3-0.2-0.5-0.2c-0.1,0-0.4,0-0.8,0H20.1z"/>
			<path class="st0" d="M25.5,21.6v-2.1l-1.8-2.9h1.2l1.2,2l1.2-2h1.2l-1.8,2.9v2.1H25.5z"/>
		</g>
	</g>
</g>
</svg>
